<svg width="374" height="283" viewBox="0 0 374 283" fill="none" xmlns="http://www.w3.org/2000/svg">
<g clip-path="url(#clip0_3:5)">
<rect width="374" height="283" fill="white"/>
<rect x="3" y="6" width="366" height="271" fill="white" stroke="#040DED" stroke-width="10"/>
<path d="M62.0405 197V193.22C68.5205 193.22 72.3005 192.02 73.3805 189.62V99.08C72.3005 96.68 68.5205 95.48 62.0405 95.48V91.7H88.3205L126.66 175.4L165 91.7H191.64V95.48C185.16 95.48 181.38 96.68 180.3 99.08V189.62C181.38 192.02 185.16 193.22 191.64 193.22V197H152.4V193.22C158.88 193.22 162.66 192.02 163.74 189.62V108.8L123.42 197H120.72L79.5005 107.72V189.62C80.5805 192.02 84.3605 193.22 90.8405 193.22V197H62.0405ZM252.608 144.8V190.88H267.908C284.708 190.88 293.108 182.72 293.108 166.4C293.108 160.76 291.008 155.78 286.808 151.46C282.608 147.02 275.588 144.8 265.748 144.8H252.608ZM252.608 97.82V139.58H259.988C276.788 139.58 285.188 131.96 285.188 116.72C285.188 104.12 276.068 97.82 257.828 97.82H252.608ZM224.708 197V193.22C231.188 193.22 234.968 192.02 236.048 189.62V99.08C234.968 96.68 231.188 95.48 224.708 95.48V91.7H257.828C272.828 91.7 284.108 94.16 291.668 99.08C299.348 104 303.188 109.82 303.188 116.54C303.188 128.78 296.828 137.06 284.108 141.38C293.108 143.42 299.828 146.78 304.268 151.46C308.828 156.02 311.108 160.94 311.108 166.22C311.108 175.34 307.448 182.78 300.128 188.54C292.928 194.18 282.188 197 267.908 197H224.708Z" fill="black"/>
</g>
<defs>
<clipPath id="clip0_3:5">
<rect width="374" height="283" fill="white"/>
</clipPath>
</defs>
</svg>
